<svg xmlns="http://www.w3.org/2000/svg" xmlns:xlink="http://www.w3.org/1999/xlink" x="0px" y="0px"
	  viewBox="0 0 97.418 97.418" style="enable-background:new 0 0 97.418 97.418;"
	 xml:space="preserve">
<g>
	<path d="M93.646,0H73.23c-0.828,0-1.5,0.672-1.5,1.5v3.563H25.688V1.5c0-0.828-0.672-1.5-1.5-1.5H3.773c-0.828,0-1.5,0.672-1.5,1.5
		v94.418c0,0.828,0.672,1.5,1.5,1.5h20.414c0.828,0,1.5-0.672,1.5-1.5v-3.562H71.73v3.562c0,0.828,0.672,1.5,1.5,1.5h20.414
		c0.828,0,1.5-0.672,1.5-1.5V1.5C95.146,0.672,94.474,0,93.646,0z M19.377,90.293c0,0.828-0.672,1.5-1.5,1.5H9.709
		c-0.828,0-1.5-0.672-1.5-1.5v-8.168c0-0.828,0.672-1.5,1.5-1.5h8.168c0.828,0,1.5,0.672,1.5,1.5V90.293z M19.377,65.293
		c0,0.828-0.672,1.5-1.5,1.5H9.709c-0.828,0-1.5-0.672-1.5-1.5v-8.168c0-0.828,0.672-1.5,1.5-1.5h8.168c0.828,0,1.5,0.672,1.5,1.5
		V65.293z M19.377,40.293c0,0.828-0.672,1.5-1.5,1.5H9.709c-0.828,0-1.5-0.672-1.5-1.5v-8.168c0-0.828,0.672-1.5,1.5-1.5h8.168
		c0.828,0,1.5,0.672,1.5,1.5V40.293z M19.377,15.293c0,0.828-0.672,1.5-1.5,1.5H9.709c-0.828,0-1.5-0.672-1.5-1.5V7.125
		c0-0.828,0.672-1.5,1.5-1.5h8.168c0.828,0,1.5,0.672,1.5,1.5V15.293z M70.73,77.062c0,0.828-0.672,1.5-1.5,1.5H28.188
		c-0.828,0-1.5-0.672-1.5-1.5V55.355c0-0.828,0.672-1.5,1.5-1.5h41.043c0.828,0,1.5,0.672,1.5,1.5L70.73,77.062L70.73,77.062z
		 M70.73,42.063c0,0.828-0.672,1.5-1.5,1.5H28.188c-0.828,0-1.5-0.672-1.5-1.5V20.355c0-0.828,0.672-1.5,1.5-1.5h41.043
		c0.828,0,1.5,0.672,1.5,1.5L70.73,42.063L70.73,42.063z M89.209,90.293c0,0.828-0.672,1.5-1.5,1.5h-8.168
		c-0.828,0-1.5-0.672-1.5-1.5v-8.168c0-0.828,0.672-1.5,1.5-1.5h8.168c0.828,0,1.5,0.672,1.5,1.5V90.293z M89.209,65.293
		c0,0.828-0.672,1.5-1.5,1.5h-8.168c-0.828,0-1.5-0.672-1.5-1.5v-8.168c0-0.828,0.672-1.5,1.5-1.5h8.168c0.828,0,1.5,0.672,1.5,1.5
		V65.293z M89.209,40.293c0,0.828-0.672,1.5-1.5,1.5h-8.168c-0.828,0-1.5-0.672-1.5-1.5v-8.168c0-0.828,0.672-1.5,1.5-1.5h8.168
		c0.828,0,1.5,0.672,1.5,1.5V40.293z M89.209,15.293c0,0.828-0.672,1.5-1.5,1.5h-8.168c-0.828,0-1.5-0.672-1.5-1.5V7.125
		c0-0.828,0.672-1.5,1.5-1.5h8.168c0.828,0,1.5,0.672,1.5,1.5V15.293z" fill="#1a202c" />
</g>
</svg>
