<svg xmlns="http://www.w3.org/2000/svg" xmlns:xlink="http://www.w3.org/1999/xlink" x="0px" y="0px"
	 viewBox="0 0 456.147 456.147" style="enable-background:new 0 0 456.147 456.147;"
	 xml:space="preserve">
<g>
	<path d="M445.666,4.445c-4.504-4.858-11.756-5.954-17.211-2.19L12.694,290.14c-3.769,2.609-5.878,7.012-5.555,11.586
		c0.323,4.574,3.041,8.635,7.139,10.686l95.208,47.607l37.042,86.43c1.78,4.156,5.593,7.082,10.064,7.727
		c0.621,0.091,1.242,0.136,1.856,0.136c3.833,0,7.506-1.697,9.989-4.701l38.91-46.994l107.587,52.227
		c1.786,0.867,3.725,1.306,5.663,1.306c1.836,0,3.674-0.393,5.384-1.171c3.521-1.604,6.138-4.694,7.146-8.432L448.37,18.128
		C449.314,14.629,449.878,8.988,445.666,4.445z M343.154,92.883L116.681,334.604l-71.208-35.603L343.154,92.883z M162.003,416.703
		l-27.206-63.48L359.23,113.665L197.278,374.771c-0.836,0.612-1.634,1.305-2.331,2.146L162.003,416.703z M312.148,424.651
		l-88.604-43.014L400.427,96.462L312.148,424.651z" fill="#f8fafc" />
</g>
</svg>
