<?xml version="1.0" standalone="no"?>
<!DOCTYPE svg PUBLIC "-//W3C//DTD SVG 20010904//EN"
 "http://www.w3.org/TR/2001/REC-SVG-20010904/DTD/svg10.dtd">
<svg version="1.0" xmlns="http://www.w3.org/2000/svg"
 width="211.000000pt" height="211.000000pt" viewBox="0 0 211.000000 211.000000"
 preserveAspectRatio="xMidYMid meet">
<metadata>
Created by potrace 1.11, written by Peter Selinger 2001-2013
</metadata>
<g transform="translate(0.000000,211.000000) scale(0.100000,-0.100000)"
fill="#000000" stroke="none">
<path d="M914 2085 c-275 -42 -492 -178 -646 -404 -201 -294 -218 -681 -46
-986 22 -38 55 -88 73 -111 54 -65 163 -167 208 -194 36 -21 31 -14 -35 48
-93 89 -144 154 -196 252 -209 390 -102 873 251 1139 314 236 757 233 1067 -9
112 -87 192 -185 253 -312 65 -131 94 -263 91 -408 -3 -152 -25 -243 -91 -390
-15 -31 -83 -134 -123 -184 -29 -37 -110 -113 -145 -137 -41 -28 -48 -48 -7
-22 98 62 208 168 278 269 48 68 99 185 125 284 67 257 15 541 -139 766 -95
140 -219 245 -379 321 -158 75 -365 105 -539 78z"/>
<path d="M945 1903 c-60 -9 -181 -46 -230 -70 -77 -39 -167 -106 -220 -165
-47 -52 -135 -179 -135 -195 0 -4 -7 -21 -15 -37 -15 -29 -27 -67 -46 -156
-16 -72 -11 -215 11 -307 38 -162 145 -328 259 -405 l46 -31 -56 54 c-191 184
-259 440 -195 732 4 16 23 61 42 100 134 265 360 409 644 410 306 1 565 -180
669 -469 99 -273 32 -564 -177 -773 -65 -65 -68 -70 -27 -40 46 33 95 80 149
144 42 49 106 181 127 263 20 77 29 250 15 318 -32 166 -95 284 -216 404 -81
81 -110 103 -190 143 -52 25 -117 51 -145 57 -27 7 -59 14 -70 17 -27 7 -203
12 -240 6z"/>
<path d="M948 1715 c-3 -3 -18 -8 -34 -11 -16 -3 -60 -19 -99 -36 -170 -74
-292 -227 -331 -413 -34 -165 14 -347 125 -477 33 -39 29 -15 -6 34 -58 80
-92 193 -91 303 2 174 63 312 189 421 142 122 356 162 526 99 101 -38 143 -66
221 -145 189 -193 193 -511 9 -733 -26 -32 -32 -44 -18 -35 31 19 103 113 135
175 83 166 71 394 -29 544 -77 117 -120 157 -236 221 -62 35 -171 58 -272 58
-46 0 -86 -2 -89 -5z"/>
<path d="M944 1536 c-262 -86 -370 -331 -259 -590 22 -51 132 -162 182 -183
68 -28 130 -41 197 -39 41 1 66 -2 67 -8 2 -41 9 -119 13 -161 l6 -51 -90 -27
c-49 -15 -94 -27 -101 -27 -10 0 -8 91 5 202 3 25 -1 29 -53 44 -30 9 -73 25
-94 36 -21 10 -40 18 -42 16 -2 -2 -6 -41 -10 -88 -3 -47 -8 -98 -10 -115 -2
-16 -7 -75 -10 -130 -4 -55 -8 -111 -10 -125 -2 -14 -7 -74 -10 -135 -4 -60
-9 -113 -11 -117 -2 -4 4 -9 13 -12 29 -8 167 -5 179 5 6 5 12 30 13 56 1 27
4 59 6 73 1 14 3 39 4 56 1 30 3 32 94 58 50 15 102 31 114 36 26 11 29 -1 39
-130 3 -47 7 -94 9 -105 1 -11 3 -28 4 -37 1 -15 12 -17 99 -15 58 1 96 6 96
12 -1 6 -5 55 -8 110 -13 186 -16 230 -22 272 -3 23 -7 73 -9 110 -2 37 -7
104 -11 148 -12 143 -13 135 38 199 79 99 105 219 73 341 -19 73 -42 125 -56
125 -15 0 -321 -150 -340 -167 -15 -13 -14 -19 13 -68 l29 -55 100 50 99 50 0
-48 c0 -135 -151 -244 -283 -205 -113 33 -174 105 -192 225 -15 102 59 217
160 250 48 15 121 17 162 4 18 -6 24 4 47 75 15 45 25 83 23 85 -11 11 -68 21
-127 22 -44 1 -87 -6 -136 -22z m-219 -316 c3 -5 1 -10 -4 -10 -6 0 -11 5 -11
10 0 6 2 10 4 10 3 0 8 -4 11 -10z m25 -216 c0 -8 -5 -12 -10 -9 -6 4 -8 11
-5 16 9 14 15 11 15 -7z m93 -103 c-4 -3 -11 -10 -15 -15 -5 -5 -8 0 -8 12 0
15 4 20 16 15 9 -3 12 -9 7 -12z m447 -411 c0 -5 -4 -10 -10 -10 -5 0 -10 5
-10 10 0 6 5 10 10 10 6 0 10 -4 10 -10z m-226 -101 c8 -12 19 -18 25 -15 5 4
12 2 15 -3 3 -5 -1 -12 -10 -15 -22 -8 -36 -7 -30 2 2 4 1 14 -5 22 -7 12 -9
10 -9 -6 0 -12 -7 -25 -16 -28 -10 -4 -14 -1 -11 6 2 7 -3 18 -12 25 -9 6 -12
15 -7 20 5 4 11 2 13 -4 3 -7 9 -13 14 -13 4 0 6 7 3 15 -9 22 13 18 30 -6z
m201 -159 c-3 -5 -14 -10 -23 -10 -15 0 -15 2 -2 10 20 13 33 13 25 0z m-2
-65 c-3 -9 -8 -14 -10 -11 -3 3 -2 9 2 15 9 16 15 13 8 -4z m-403 -25 c0 -5
-2 -10 -4 -10 -3 0 -8 5 -11 10 -3 6 -1 10 4 10 6 0 11 -4 11 -10z"/>
<path d="M640 746 c0 -2 8 -10 18 -17 15 -13 16 -12 3 4 -13 16 -21 21 -21 13z"/>
</g>
</svg>
